<svg xmlns="http://www.w3.org/2000/svg" viewBox="0 0 145.41 126.61"><defs><style>.a{fill:#fff;}</style></defs><path class="a" d="M188.66,58.3,51.15,111.35a4,4,0,0,0,0,7.38L84.7,131.24l13,41.71a4,4,0,0,0,6.27,1.89l18.67-15.23a5.57,5.57,0,0,1,6.79-.19l33.69,24.46a4,4,0,0,0,6.19-2.39L194,62.79A4,4,0,0,0,188.66,58.3ZM162.44,86.06l-54,50.24a11.13,11.13,0,0,0-3.47,6.7l-1.84,13.64a1.7,1.7,0,0,1-3.31.24L92.7,132a6.6,6.6,0,0,1,2.88-7.42l65.49-40.33A1.14,1.14,0,0,1,162.44,86.06Z" transform="translate(-48.62 -58.03)"/></svg>