<svg xmlns="http://www.w3.org/2000/svg" viewBox="0 0 142.15 116.64"><defs><style>.a{fill:#fff;}</style></defs><path class="a" d="M192.41,77.4a26.42,26.42,0,0,1-6.28,9,102.69,102.69,0,0,1-8.72,6.71s3.65,15.46-6.56,38.87-32.21,41.57-55.62,45.54S79.48,179.12,70,176.42s-19.72-9.79-19.72-9.79,16.59.43,26.81-3a52.24,52.24,0,0,0,16.17-8.52,37.08,37.08,0,0,1-19.58-8.51C65,139,64.58,133.3,64.58,133.3a48.4,48.4,0,0,0,8.94,1c4.4,0,5.11-.29,5.11-.29s-12.34-3.4-19.15-14.61-5.11-15.46-5.11-15.46a22.14,22.14,0,0,0,7.09,3.54c4.54,1.42,7.24.43,7.24.43s-11.63-6.38-12.49-19.72S59.76,68.6,59.76,68.6s7.95,14.47,28.09,22.7S120.2,99,120.2,99,114,76,137.79,66.05s34.05,7.66,34.05,7.66a83.74,83.74,0,0,0,11-4,21.84,21.84,0,0,0,5.64-4.15,27.12,27.12,0,0,1-4.25,8.94,64.53,64.53,0,0,1-7.45,7.87s4.68-1.17,8.83-2.55S192.41,77.4,192.41,77.4Z" transform="translate(-50.26 -63.01)"/></svg>