<svg xmlns="http://www.w3.org/2000/svg" viewBox="0 0 155.98 87.63"><defs><style>.a{fill:#fff;}</style></defs><path class="a" d="M195,82.92a4.41,4.41,0,0,1,3.73,6.76l-22.48,35.75a8.22,8.22,0,0,0,.76,9.79l21.07,24.22a4.79,4.79,0,0,1-3.61,7.93H170.69a14.87,14.87,0,0,1-10.13-4l-7-6.55c-8-7-11.33-9.33-14.51-9.33s-4,2.38-4,8.54-1.2,11.33-19.48,11.33S83,153.66,66.88,132.4A162.68,162.68,0,0,1,43.64,88.29a4.45,4.45,0,0,1,4.24-5.77h19a9.3,9.3,0,0,1,8.44,5.38,184.21,184.21,0,0,0,8.82,16.28c6.51,10.93,12.76,15.85,16.3,17.95a2,2,0,0,0,3-1.72V94.2A14.2,14.2,0,0,0,100,84.87l-2.69-3.09a1.23,1.23,0,0,1,.93-2h30.08a8.35,8.35,0,0,1,8.35,8.35v30.48a2,2,0,0,0,3.63,1.1L161.91,87a9.22,9.22,0,0,1,7.67-4.12Z" transform="translate(-43.44 -79.74)"/></svg>